<svg xmlns="http://www.w3.org/2000/svg" width="768" height="722" viewBox="0 0 768 722" version="1.1">
	<path d="M 294 68.123 C 283.656 69.985, 280.931 71.051, 279.955 73.618 C 279.181 75.655, 278.738 75.838, 276.756 74.935 C 274.892 74.085, 273.605 74.369, 269.978 76.428 C 260.857 81.607, 252.706 91.135, 247.250 103 C 242.407 113.530, 241.639 116.918, 241.584 128 C 241.517 141.360, 243.547 146.429, 251.526 152.832 C 264.837 163.512, 283.618 165.789, 311.500 160.102 C 319.750 158.420, 328.075 156.603, 330 156.065 C 334.728 154.743, 352.562 153, 361.356 153 C 370.424 153.001, 389.546 156.120, 398 158.978 C 407.770 162.281, 418.877 168.395, 426.440 174.633 C 431.936 179.166, 433.065 179.769, 432.471 177.855 C 431.375 174.319, 420.714 149.576, 420.039 149 C 419.716 148.725, 417.935 145.575, 416.081 142 C 408.038 126.491, 391.844 105.154, 380.917 95.664 C 378.488 93.555, 375.600 91.032, 374.500 90.057 C 372.302 88.109, 361.392 81, 360.601 81 C 360.329 81, 356.820 79.441, 352.803 77.536 C 345.713 74.174, 330.435 69.886, 320.732 68.536 C 313.047 67.466, 298.866 67.247, 294 68.123 M 345 67.395 C 345 67.613, 347.363 69.037, 350.250 70.560 C 353.137 72.083, 356.400 73.818, 357.500 74.416 C 360.509 76.051, 369.361 82.239, 370.500 83.504 C 371.050 84.114, 373.075 85.772, 375 87.187 C 381.335 91.845, 395.898 106.053, 401.812 113.348 C 421.005 137.020, 432.310 159.667, 442.575 195 C 443.961 199.772, 447.026 214.864, 448.973 226.500 C 454.793 261.295, 461.855 278.153, 480.500 301.765 C 483.611 305.704, 497.510 316.245, 503.690 319.351 C 513.004 324.032, 518.283 325.171, 530.500 325.137 C 542.639 325.102, 549.913 323.074, 562.314 316.267 C 598.191 296.574, 612.768 269.610, 606.572 234.403 C 604.618 223.299, 594.769 198.844, 587.709 187.568 C 575.686 168.364, 565.028 154.923, 552.764 143.500 C 539.357 131.012, 539.143 130.822, 536.453 129 C 535.234 128.175, 530.922 125.210, 526.869 122.411 C 517.373 115.852, 501.534 107.128, 488.665 101.368 C 483.074 98.866, 477.150 96.193, 475.500 95.428 C 471.265 93.466, 462.559 90.478, 447.500 85.819 C 429.139 80.138, 417.279 77.323, 394 73.123 C 369.935 68.781, 345 65.867, 345 67.395 M 234.365 177.953 C 227.344 179.627, 221.185 187.165, 219.500 196.146 C 217.921 204.563, 223.986 213.652, 231.887 214.712 C 239.813 215.775, 249.245 210.038, 252.579 202.128 C 254.453 197.681, 254.387 189.650, 252.447 185.897 C 248.495 178.256, 243.076 175.875, 234.365 177.953 M 195 180.640 C 189.756 184.370, 187.555 188.115, 186.510 195.084 C 184.115 211.055, 199.784 220.846, 208.781 209 C 214.496 201.476, 214.326 187.184, 208.453 181.310 C 206.004 178.862, 198.057 178.465, 195 180.640 M 276.054 186.667 C 270.242 188.798, 263.117 196.023, 259.440 203.513 C 252.400 217.851, 258.775 230.467, 273.062 230.467 C 277.640 230.467, 279.641 229.856, 284.289 227.039 C 296.497 219.640, 301 212.691, 301 201.252 C 301 195.006, 299.064 190.324, 295.365 187.627 C 291.809 185.033, 281.857 184.538, 276.054 186.667 M 164.353 200.926 C 155.257 206.473, 159.062 222, 169.517 222 C 174.713 222, 177.311 220.117, 178.945 215.166 C 180.756 209.680, 179.641 204.717, 175.889 201.560 C 172.266 198.512, 168.640 198.312, 164.353 200.926 M 323.500 205.356 C 320.200 206.652, 316.362 208.178, 314.970 208.748 C 311.731 210.073, 301.700 219.926, 298.654 224.773 C 291.970 235.412, 290.096 248.366, 294.255 255.174 C 297.424 260.361, 300.674 262.584, 307.002 263.892 C 311.459 264.814, 313.592 264.744, 318.267 263.523 C 324.901 261.790, 334 257.430, 334 255.983 C 334 255.442, 334.618 255, 335.374 255 C 337.825 255, 347.206 243.674, 350.282 237 C 356.264 224.018, 354.832 212.787, 346.370 206.333 C 341.235 202.417, 331.990 202.022, 323.500 205.356 M 197.500 224.895 C 188.522 227.314, 185.325 228.825, 175.936 235.089 C 158.255 246.883, 143.366 265.912, 128.851 295.266 C 127.283 298.437, 126 301.610, 126 302.316 C 126 303.022, 125.603 304.027, 125.119 304.550 C 124.006 305.750, 117.793 324.098, 115.147 334 C 111.654 347.067, 109.975 363.208, 109.997 383.500 C 110.050 431.397, 120.484 477.582, 143.772 533 C 152.720 554.292, 152.482 554.168, 152.603 537.587 C 152.792 511.533, 159.580 485.598, 173.301 458.500 C 176.086 453, 179.219 447.375, 180.263 446 C 181.306 444.625, 183.587 441.237, 185.330 438.471 C 196.731 420.385, 218.736 397.050, 237.805 382.825 C 271.978 357.333, 293.046 322.298, 292.985 291.066 C 292.953 274.516, 287.369 261.484, 275.364 249.937 C 257.651 232.902, 234.028 222.813, 212.622 223.139 C 207.605 223.216, 200.800 224.006, 197.500 224.895 M 627.786 239.726 C 626.293 239.946, 623.887 241.534, 622.439 243.255 C 620.199 245.917, 619.901 246.991, 620.444 250.442 C 621.419 256.649, 625.527 260.213, 632.359 260.780 C 637.304 261.190, 638.125 260.965, 640.548 258.543 C 642.924 256.167, 643.184 255.272, 642.766 250.915 C 642.005 242.994, 636.006 238.514, 627.786 239.726 M 615.923 271.923 C 613.397 274.449, 613 275.597, 613 280.378 C 613 285.713, 613.190 286.105, 618.331 291.371 C 624.240 297.423, 629.588 299.587, 636.383 298.675 C 642.385 297.870, 645.371 294.307, 645.230 288.118 C 645.053 280.348, 641.847 275.607, 633.720 271.098 C 631.154 269.674, 628.157 269, 624.393 269 C 619.596 269, 618.451 269.395, 615.923 271.923 M 604.753 297.960 C 592.246 300.377, 589.772 318.500, 600.486 329.214 C 604.204 332.931, 611.066 335.389, 615.914 334.738 C 625.346 333.473, 630.347 324.804, 628.044 313.710 C 625.682 302.334, 615.999 295.786, 604.753 297.960 M 568.222 324.605 C 563.066 328.669, 560.775 334.163, 560.792 342.428 C 560.830 362.176, 576.026 376.612, 590.437 370.591 C 592.657 369.663, 594.781 367.528, 596.655 364.341 C 599.191 360.026, 599.496 358.576, 599.464 351 C 599.412 338.639, 596.048 331.804, 586.600 324.864 C 581.212 320.907, 573.061 320.792, 568.222 324.605 M 521.037 340.141 C 518.508 342.070, 515.514 345.653, 514.055 348.497 C 511.716 353.056, 511.507 354.489, 511.577 365.488 C 511.639 375.163, 512.075 378.653, 513.814 383.427 C 517.214 392.760, 523.824 401.334, 530.445 405 C 543.120 412.019, 556.606 405.273, 559.973 390.231 C 564.132 371.644, 556.870 350.146, 543.338 340.986 C 539.444 338.349, 537.229 337.618, 531.982 337.238 C 525.788 336.788, 525.244 336.932, 521.037 340.141 M 638.782 357.886 C 631.901 360.652, 624.866 366.180, 619.881 372.741 C 617.474 375.908, 615.257 378.725, 614.955 379 C 613.503 380.318, 609.087 389.269, 606.568 396 C 605.024 400.125, 603.406 404.400, 602.973 405.500 C 602.540 406.600, 601.648 409.750, 600.992 412.500 C 599.008 420.809, 591.970 440.206, 589.200 445 C 587.769 447.475, 585.786 451.173, 584.792 453.217 C 581.254 460.495, 567.681 477.205, 559.493 484.364 C 551.476 491.373, 539.989 498.004, 530.500 501.100 L 526.500 502.405 533 503.693 C 542.807 505.635, 567.227 507.128, 578.500 506.474 C 605.890 504.885, 624.623 500.421, 642.376 491.252 C 670.030 476.969, 691.278 449.032, 696.083 420.638 C 697.318 413.340, 696.210 402.933, 693.301 394.500 C 688.946 381.878, 673.726 364.081, 663.061 359.140 C 655.681 355.721, 645.481 355.195, 638.782 357.886 M 202.684 422.360 C 201.834 423.658, 200.534 425.345, 199.795 426.110 C 197.248 428.748, 185.408 445.522, 180.646 453.240 C 170.829 469.150, 160.973 493.836, 157.984 510 C 151.364 545.798, 167.162 590.486, 193 609.053 C 203.938 616.913, 221.906 619.836, 239.081 616.549 C 261.881 612.186, 271.750 603.140, 272.799 585.641 C 273.421 575.248, 271.840 568.666, 265.756 556.324 C 259.830 544.303, 256.600 540.149, 241.009 524.500 C 237.740 521.219, 227.946 508.276, 223.257 501.041 C 214.804 487.998, 209.411 475.701, 206.353 462.500 C 204.156 453.017, 203.748 428.540, 205.698 423.250 C 206.671 420.610, 206.646 420, 205.563 420 C 204.830 420, 203.534 421.062, 202.684 422.360 M 296.500 472.689 C 289.275 473.668, 282.715 476.263, 279.017 479.604 C 274.142 484.008, 271.495 490.494, 272.464 495.660 C 275.596 512.357, 294.809 523.925, 317.455 522.752 C 328.204 522.195, 334.076 519.872, 339.269 514.124 C 346.828 505.757, 345.018 494.971, 334.356 484.834 C 325.629 476.537, 308.545 471.056, 296.500 472.689 M 665.882 481.879 C 664.568 482.912, 661.920 484.638, 659.997 485.714 C 658.074 486.790, 654.250 488.925, 651.500 490.458 C 642.468 495.494, 626.422 501.858, 616.373 504.391 C 595.284 509.706, 589.001 510.424, 563.500 510.430 C 542.658 510.435, 538.052 510.144, 528.500 508.215 C 508.114 504.099, 491.653 499.298, 478 493.484 C 456.789 484.453, 427.894 480.142, 407.500 482.966 C 391.457 485.187, 380.834 488.579, 372.358 494.187 C 357.065 504.304, 349.011 516.200, 345.440 533.943 C 343.080 545.669, 343.896 568.439, 347.037 578.500 C 350.239 588.757, 356.435 600.576, 361.660 606.397 C 383.461 630.683, 421.457 638.580, 477 630.370 C 494.825 627.735, 519.608 619.263, 534.635 610.666 C 547.857 603.103, 553.887 599.329, 563.450 592.630 C 568.978 588.759, 573.725 585.334, 574 585.019 C 574.275 584.705, 577.875 581.759, 582 578.472 C 591.545 570.868, 597.511 565.343, 611.910 550.773 C 632.519 529.919, 646.772 512.730, 663.132 489 C 670.066 478.942, 670.263 478.432, 665.882 481.879 M 296.994 530.934 C 292.772 532.218, 288.620 534.682, 286.063 537.419 C 284.219 539.392, 283.528 541.424, 283.223 545.764 C 282.862 550.897, 283.137 551.936, 285.841 555.647 C 291.786 563.804, 300.577 568.165, 311.500 568.374 C 326.519 568.662, 336.601 558.625, 333.084 546.887 C 331.421 541.336, 326.849 536.581, 319.778 533.047 C 314.615 530.467, 312.594 530.013, 306.590 530.086 C 302.691 530.133, 298.372 530.515, 296.994 530.934 M 313.248 575.880 C 304.700 578.833, 301 583.465, 301 591.216 C 301 600.657, 308.480 607.407, 319 607.461 C 326.357 607.498, 329.286 606.566, 333.533 602.837 C 337.875 599.025, 340 595.129, 340 590.984 C 340 584.592, 334.026 577.679, 326.596 575.473 C 320.400 573.633, 319.690 573.654, 313.248 575.880 M 333.171 611.008 C 322.357 615.916, 318.591 628.719, 326.337 634.244 C 331.150 637.677, 340.893 637.445, 347.185 633.746 C 355.105 629.090, 358.323 622.539, 356.060 615.681 C 353.915 609.184, 342.381 606.829, 333.171 611.008 M 361.878 632.254 C 358.533 633.583, 355.996 637.868, 356.015 642.154 C 356.037 646.802, 357.370 648.768, 359.373 647.105 C 360.684 646.017, 360.870 646.237, 360.699 648.670 C 360.520 651.220, 360.846 651.533, 364 651.833 C 374.193 652.802, 382.149 643.753, 377.970 635.945 C 375.676 631.657, 367.880 629.870, 361.878 632.254" stroke="none" fill="#458c46" fill-rule="evenodd"/>
</svg>